# xmcd CD database file
#
# Track frame offsets:
#	150
#	27809
#	54041
#	90357
#	116372
#	142190
#	168722
#	222670
#	254944
#	278623
#	303065
#
# Disc length: 4434 seconds
#
# Revision: 4
# Processed by: cddbd v1.5.2PL0 Copyright (c) Steve Scherf et al.
# Submitted via: CDex 1.51
#
DISCID=9811500b
DTITLE=Joe Louis Walker's Blues Conspiracy - Live With Guests On The Legendary Rhythm and Blues Cruise
DYEAR=2010
DGENRE=Blues
TTITLE0=Feat.Mike Finnigan_Slow Down GTO (Live)
TTITLE1=Feat.Johnny Winter_Ain't That Cold (Live)
TTITLE2=Feat.Curtis Salgado and Mike Finnigan_You're Gonna Make Me Cry (Live)
TTITLE3=Feat.Tony Castro, Tom Poole, Deanna Bogart and Keith Crossan_Eyes Like A Cat (Live)
TTITLE4=Feat.Kirk Fletcher_Ten More Shows To Play (Live)
TTITLE5=Feat.Jason Ricci, Paris Slim and Nick Moss_Born In Chicago (Live)
TTITLE6=Feat.Watermelon Slim_Sugar Mama (Live)
TTITLE7=Feat.Duke Robillard and Todd Sharpville_Tell Me Why (Live)
TTITLE8=Feat.Kenny Neal_A Poor Man's Plea (Live)
TTITLE9=Feat.Liwood Taylor, Kevin Burton, Henry Oden and Jeff Minnieweather_It's A Shame (Live)
TTITLE10=Feat.Paul Nelson, Tab Benoit and Mitch Woods_747 (Live)
EXTD=YEAR: 2010
EXTT0=
EXTT1=
EXTT2=
EXTT3=
EXTT4=
EXTT5=
EXTT6=
EXTT7=
EXTT8=
EXTT9=
EXTT10=
PLAYORDER=
